<svg width="1027" height="234" viewBox="0 0 1027 234" fill="none" xmlns="http://www.w3.org/2000/svg">
<g clip-path="url(#clip0_57_107)">
<path d="M79.2356 38.1926C88.2132 38.2259 97.1576 38.2259 106.135 38.2591C107.465 38.2591 107.864 37.7269 107.831 36.4628C107.764 33.8015 107.764 31.1402 107.798 28.4789C107.864 22.5243 111.256 18.7652 117.108 18.1664C119.203 17.9668 121.297 17.9668 123.425 17.9668C140.25 18.0001 157.075 18.0001 173.899 18.0001C176.36 18.0001 178.787 18.0666 181.048 19.1644C182.544 19.863 183.874 20.7279 184.539 22.3247C184.273 22.8237 184.672 23.1896 184.872 23.489C186.302 25.3519 186.402 27.4809 186.368 29.743C186.302 50.5011 186.435 71.2591 186.302 92.0172C186.302 92.5827 186.036 93.3811 186.801 93.8468C186.069 98.2712 183.243 101.664 179.585 102.496C178.654 102.795 177.723 102.629 176.792 102.629C170.774 102.762 164.722 102.463 158.704 102.463C158.471 102.463 158.272 102.463 158.039 102.463C157.673 102.429 157.208 102.429 157.208 101.897C157.208 101.432 157.54 101.199 157.939 101.132C159.036 100.899 160.134 100.999 161.264 100.999C164.357 100.966 164.922 100.434 165.088 97.373C165.088 97.2732 165.088 97.1402 165.088 97.0404C164.889 88.9567 165.786 80.873 165.387 72.7894C164.988 65.0384 165.288 57.2874 165.055 49.5364C164.955 45.9436 164.024 42.617 160.366 40.7874C158.804 40.0222 157.208 39.8226 155.545 39.8226C144.074 39.8226 132.602 39.7894 121.131 39.8559C118.139 39.8559 115.179 39.3569 112.187 39.49C109.327 39.623 108.629 40.2218 108.562 43.0162C108.529 46.1765 108.529 49.3368 108.562 52.497C108.562 53.7944 108.795 55.0253 109.227 56.2561C109.593 57.2541 109.161 57.6866 108.163 57.7864C105.703 58.0525 103.242 58.5847 100.749 58.4849C96.1933 59.1503 93.7993 61.5787 93.234 66.2027C93.1343 66.9013 92.968 67.5999 92.968 68.3317C92.0703 75.6503 92.303 83.0021 92.303 90.3539C92.303 92.5162 92.2698 94.6452 92.7353 96.7743C93.101 98.4708 93.1675 100.3 92.702 102.03C92.1368 102.729 91.3387 102.662 90.574 102.662C85.3869 102.662 80.1999 102.662 75.0128 102.662C72.3195 102.429 69.6263 102.629 66.933 102.629C65.736 102.629 64.5057 102.629 63.2755 102.662C62.8099 102.662 62.3444 102.629 62.3112 102.03C62.2779 101.498 62.6437 101.232 63.1092 101.132C63.475 101.032 63.874 100.999 64.273 100.999C70.0918 101.032 75.9106 100.966 81.6961 100.633C83.5249 100.533 85.3204 100.966 87.1492 100.966C89.8092 100.966 90.574 100.267 90.6072 97.6724C90.6405 94.4124 90.6737 91.119 90.6072 87.8589C90.574 85.4638 89.8757 84.7319 87.515 84.7319C77.8059 84.6654 68.13 84.6987 58.4209 84.7319C57.4566 84.7319 56.5589 84.9315 55.6944 85.3307C54.3976 85.8962 54.0651 85.6634 54.0651 84.1664C54.0651 77.9456 54.0651 71.7581 54.0651 65.5374C54.0651 64.872 54.2646 64.2067 53.8989 63.5747C53.8989 61.7118 53.8656 59.8489 53.8656 57.9859C53.0343 56.489 53.0343 54.8589 53.0676 53.1956C53.1008 51.2662 53.0676 49.3368 53.0676 47.4073C53.0676 44.114 54.5639 41.619 57.1241 39.7228C57.7559 39.2571 58.1881 38.6583 58.7202 38.1261C58.9197 38.0263 59.1192 37.993 59.3187 38.0263C61.6129 37.9597 63.9072 38.0263 66.2015 38.1261C68.9945 38.2259 71.7875 38.3922 74.5806 37.7269C75.7443 37.4607 76.9746 37.4275 78.2049 37.7269C78.3711 37.8267 78.5706 37.8932 78.7369 37.9597C78.9031 37.993 79.0694 38.0928 79.2356 38.1926Z" fill="#FED701"/>
<path d="M100.084 57.5535C102.245 56.8882 104.473 57.3206 106.7 57.2541C107.931 57.2208 108.529 57.0878 108.097 55.5575C107.365 52.863 107.831 50.0354 107.764 47.2743C107.731 45.112 107.698 42.9497 107.831 40.7874C107.931 38.8912 108.429 38.492 110.325 38.5585C125.653 39.1241 140.981 38.8579 156.31 38.8912C162.095 38.8912 165.62 42.7501 165.919 48.3388C165.986 49.6029 165.952 50.9003 165.919 52.1644C165.72 60.7471 166.285 69.3297 166.252 77.9124C166.219 85.3973 165.986 92.8489 165.853 100.334C165.819 101.398 165.354 101.831 164.323 101.797C162.295 101.764 160.233 101.797 158.205 101.897C165.321 102.296 172.47 102.596 179.585 102.463C178.82 102.895 177.956 102.795 177.158 102.795C170.608 102.795 164.09 102.596 157.54 102.862C152.553 103.062 149.261 98.9698 149.294 94.4789C149.394 85.4638 149.361 76.4154 149.361 67.367C149.361 64.3398 148.496 61.7783 146.202 59.616C144.44 57.986 142.411 57.3872 140.15 57.2874C138.288 57.1876 136.393 57.3206 134.498 57.2541C133.134 57.1876 132.636 57.7864 132.669 59.117C132.735 63.6745 132.769 68.1987 132.769 72.7561C132.769 80.0081 132.802 87.2602 132.702 94.5122C132.669 98.4043 129.809 101.531 125.686 102.463C125.121 102.762 124.489 102.596 123.891 102.596C116.576 102.596 109.294 102.662 101.979 102.43C99.4851 102.363 97.0245 102.729 94.5307 102.596C94.032 102.563 93.3005 102.862 93.2007 102.03C93.101 101.199 93.766 101.099 94.3977 100.966C96.027 100.7 97.6563 100.5 99.352 100.766C101.148 101.066 103.01 100.999 104.805 100.833C106.335 100.7 106.933 100.001 107.133 98.5041C107.232 97.8388 107.199 97.1735 107.199 96.5081C107.199 85.1644 107.199 73.8206 107.199 62.4436C107.199 61.8781 107.199 61.3458 107.166 60.7803C107 59.0505 106.401 58.4517 104.639 58.3519C103.641 58.2854 102.644 58.3519 101.646 58.2854C101.081 58.3186 100.316 58.4517 100.084 57.5535Z" fill="#FFC000"/>
<path d="M132.702 57.5535C132.735 61.0797 132.735 64.0071 132.769 66.0696C132.802 71.7914 132.835 73.8206 132.868 78.2117C132.902 86.994 132.835 85.4305 132.868 86.4285C132.968 88.8236 133.168 91.2188 132.702 94.4789C132.469 96.2752 132.303 97.2067 131.771 98.2379C130.242 101.099 127.083 102.13 125.72 102.496C125.387 102.529 124.722 102.629 123.924 102.629C116.609 102.629 109.327 102.696 102.012 102.463C99.5183 102.396 97.0578 102.762 94.564 102.629C94.0652 102.596 93.3337 102.895 93.234 102.064C93.1342 101.232 93.7992 101.132 94.431 100.999C96.0603 100.733 97.6895 100.533 99.3853 100.799C101.181 101.099 103.043 101.032 104.838 100.866C106.368 100.733 106.966 100.034 107.166 98.5373C107.266 97.872 107.232 97.2067 107.232 96.5414C107.232 95.9758 107.166 84.8317 107.232 62.4769C107.232 61.4789 107.232 59.749 107.266 57.5535C115.744 57.5867 124.223 57.5535 132.702 57.5535Z" fill="#95D131"/>
<path d="M141.974 139.867C141.974 145.387 142.061 150.908 141.916 156.428C141.828 160.185 139.178 162.815 134.983 163.855C134.517 164.087 134.022 163.971 133.556 163.971C120.011 163.971 106.466 163.971 92.9509 163.971C90.9993 163.971 90.8828 163.827 91.0576 161.89C91.145 160.792 91.1741 159.665 91.1741 158.566C91.1741 144.665 91.1741 130.734 91.1741 116.832C91.1741 114 91.1741 114 94.0578 114C98.0484 114 102.01 114 106 114C106.903 114.491 106.583 115.358 106.583 116.052C106.612 123.422 106.612 130.763 106.612 138.133C106.612 139.231 106.641 140.329 106.874 141.428C107.602 145.156 110.108 147.439 113.952 147.728C115.03 147.815 116.079 147.786 117.157 147.786C123.856 147.786 130.527 147.786 137.226 147.786C137.75 147.786 138.304 147.815 138.828 147.757C140.372 147.642 140.896 147.15 140.984 145.618C141.071 144.087 140.955 142.526 141.042 140.994C141.042 140.474 140.925 139.665 141.974 139.867Z" fill="#4FB92B"/>
<path d="M45.0255 139.867C45.0255 145.387 44.9398 150.908 45.0826 156.428C45.1683 160.185 47.767 162.815 51.8792 163.855C52.3361 164.087 52.8216 163.971 53.2785 163.971C66.5577 163.971 79.8368 163.971 93.0873 163.971C95.0007 163.971 95.1149 163.827 94.9436 161.89C94.8579 160.792 94.8293 159.665 94.8293 158.566C94.8293 144.665 94.8293 130.734 94.8293 116.832C94.8293 114 94.8293 114 92.0022 114C88.0898 114 84.206 114 80.2937 114C79.4084 114.491 79.7225 115.358 79.7225 116.052C79.694 123.422 79.694 130.763 79.694 138.133C79.694 139.231 79.6654 140.329 79.437 141.428C78.723 145.156 76.2671 147.439 72.4976 147.728C71.4409 147.815 70.4129 147.786 69.3563 147.786C62.7881 147.786 56.2485 147.786 49.6803 147.786C49.1663 147.786 48.6237 147.815 48.1097 147.757C46.5961 147.642 46.0821 147.15 45.9964 145.618C45.9108 144.087 46.025 142.526 45.9393 140.994C45.9393 140.474 46.025 139.665 45.0255 139.867Z" fill="#EC202A"/>
<path d="M106.278 114C115.942 114 125.606 114.029 135.27 114.029C139.914 115.529 141.916 118.118 141.974 123.059C142.032 128.765 141.974 134.471 141.974 140.176C141.394 142.441 141.771 144.735 141.713 147.029C141.626 149 141.684 149 139.682 149C131.44 149 123.168 149 114.926 149C109.441 149 106.104 145.765 106.046 140.235C105.959 132.059 106.017 123.882 106.046 115.735C106.017 115.147 106.191 114.559 106.278 114Z" fill="#9ACD2B"/>
<path d="M59.1192 38.9244C55.6944 41.3861 53.5331 44.4798 53.7992 48.9707C53.9987 51.9647 53.8324 54.9586 53.8324 57.9526C53.5664 57.5867 53.2006 57.3205 52.7351 57.3205C49.8091 57.3538 46.8498 56.9879 43.9903 57.7197C40.499 58.6179 38.105 61.379 37.573 64.9717C37.307 66.8346 37.307 68.7308 37.307 70.5937C37.307 78.5776 37.1407 86.5615 37.3735 94.5121C37.5065 100.068 33.0177 102.795 29.1939 102.795C22.7766 102.795 16.3593 102.829 9.94193 102.862C9.17717 102.862 8.37917 102.895 7.68091 102.463C8.01341 101.465 8.91117 101.664 9.64268 101.631C12.0367 101.564 14.3975 101.631 16.7915 101.598C19.4515 101.531 20.0833 100.866 20.183 98.2046C20.8148 81.9375 20.449 65.6371 20.449 49.3699C20.449 46.9082 20.6818 44.6794 22.1448 42.7167C23.8406 40.4879 25.9021 38.6582 28.8946 38.3921C35.6777 37.7933 42.494 37.9929 49.3104 38.2923C51.9704 38.4254 54.6304 38.4586 57.2572 37.9597C57.9554 37.8931 59.1192 37.3609 59.1192 38.9244Z" fill="#0136BE"/>
<path d="M186.801 93.8469C186.435 94.4789 186.069 95.111 185.537 95.9759C186.136 91.2521 185.803 86.7945 185.836 82.3701C185.87 64.9386 185.836 47.5072 185.869 30.0757C185.869 27.7804 185.803 25.5515 184.44 23.5556C184.207 23.2229 183.542 22.6574 184.539 22.3247C185.803 23.7552 186.701 25.3852 186.834 27.3479C186.634 27.7804 186.701 28.2128 186.701 28.6453C186.701 42.3842 186.701 56.1231 186.701 69.8953C186.701 70.3277 186.601 70.7935 186.834 71.1926C186.801 78.7441 186.801 86.2955 186.801 93.8469Z" fill="#FED701"/>
<path d="M186.801 71.1927C186.468 70.3943 186.501 69.5627 186.501 68.731C186.501 55.6907 186.501 42.6504 186.501 29.6101C186.501 28.8449 186.468 28.0466 186.767 27.3147C186.801 33.5687 186.834 39.8228 186.834 46.0768C186.867 54.4599 186.834 62.8429 186.801 71.1927Z" fill="#FED701"/>
<path d="M78.8369 38.2591C78.8369 35.3982 78.7038 32.5373 78.8369 29.6764C78.9366 27.1815 78.4378 24.8861 77.5068 22.624C79.1029 23.9214 79.1694 25.7843 79.2026 27.6139C79.2691 31.1402 79.2359 34.6664 79.2691 38.1926C79.1028 38.2258 78.9699 38.2591 78.8369 38.2591Z" fill="#6C6C6C"/>
<path d="M92.1035 67.5667C92.1035 78.9769 92.1035 90.4205 92.1035 101.831C91.7045 101.066 91.771 100.201 91.771 99.4023C91.771 89.6221 91.771 79.8086 91.771 70.0283C91.771 69.1634 91.7045 68.3318 92.1035 67.5667Z" fill="#929292"/>
<path d="M59.2189 38.9578C65.6694 37.5938 72.2198 38.5586 78.7368 38.3257C78.0718 38.6916 77.3403 38.6251 76.6421 38.6251C72.8515 38.6251 69.0277 38.6251 65.2372 38.6251C63.8074 38.6251 62.3777 38.492 61.0144 39.1241C60.4159 39.3902 59.7841 39.2571 59.2189 38.9578Z" fill="#B4B4B4"/>
<path d="M78.9695 27.9134C79.036 25.9839 78.5705 24.2208 77.4733 22.6573C76.0768 20.0626 73.8157 18.7319 70.9562 18.3993C69.5929 18.2329 68.1964 18.0999 66.8332 18.0999C63.6079 18.0666 60.4158 18.1997 57.1906 18.1664C41.5296 18.0001 25.8687 18.2329 10.2078 18.2662C9.44305 18.2662 8.64504 18.2329 7.94679 18.6321C7.08228 18.5656 6.35077 18.865 5.61926 19.2642C2.09472 21.2602 0.132954 24.3872 0.0997038 28.3458C-4.72307e-05 49.8025 0.0332031 71.2924 0.0664535 92.7823C0.0664535 97.7057 2.85948 101.099 7.61428 102.496C11.1056 102.496 14.5969 102.496 18.0881 102.496C20.9477 102.496 20.9477 102.463 20.9477 99.6351C20.9477 82.4698 20.9809 65.3045 20.9144 48.1392C20.8812 43.6483 24.7715 39.8892 28.7283 39.3569C34.9461 38.5253 41.1971 39.0908 47.4482 39.0908C50.873 39.0908 54.2978 39.5898 57.6893 38.7914C58.1881 38.6583 58.6868 38.6916 59.1523 38.9577L59.2521 38.991C59.7841 39.2571 60.4491 39.3237 60.8481 39.0243C61.7459 38.3257 62.7101 38.492 63.7076 38.492C65.8024 38.4587 67.8972 38.5253 70.0252 38.492C72.9512 38.4255 75.8773 38.6583 78.8033 38.3589L78.903 38.3257C79.169 34.8327 78.8698 31.3731 78.9695 27.9134Z" fill="#0047FF"/>
<path d="M53.9653 83.3679H92.1035V102.862H61.1142C61.1142 102.862 54.2978 100.633 53.9653 94.4123C53.6328 88.1915 53.9653 83.3679 53.9653 83.3679Z" fill="#FDBE00"/>
<path d="M105.902 57.2542C106.368 57.2542 107.266 57.2542 107.765 57.8529C108.13 58.2854 108.13 58.8842 108.13 59.0838C107.864 65.4044 108.363 71.7249 108.197 78.0455C108.097 81.5384 108.197 85.0314 108.263 87.6594C108.33 90.1211 108.263 92.5828 108.396 95.0445C108.629 99.5021 108.995 101.598 107.765 102.563C107.233 102.962 106.8 102.862 104.606 102.795C101.347 102.696 98.1219 102.895 94.8634 102.862C94.3979 102.862 92.1036 102.829 91.6048 102.829C91.5383 99.1029 91.5383 95.9759 91.5051 93.6806C91.4386 85.9296 91.4386 81.9709 91.5383 76.8812C91.6381 73.3217 91.7711 70.361 91.8708 68.3983C91.8376 67.3005 91.8376 63.741 94.3979 60.7804C95.6946 59.2834 97.0911 58.5848 97.8559 58.1856C99.8177 57.2542 101.846 57.2542 105.902 57.2542Z" fill="#44B925"/>
<path d="M49.5359 114.951C57.1027 113.22 64.8134 114.452 72.4378 114.1C75.0848 113.983 77.7318 114.1 80.3787 114.1C81.3282 114.1 82.0187 114.423 81.8748 115.479C81.2994 119.38 82.1913 123.252 81.9611 127.154C81.731 130.938 81.731 134.751 81.9611 138.535C82.0762 140.295 81.6734 141.938 81.1555 143.551C80.2349 146.455 77.9619 147.981 74.9985 148.626C73.675 148.89 72.2652 148.978 70.913 148.978C63.4036 149.007 55.8656 149.007 48.3563 148.978C45.6805 148.978 45.6805 148.978 45.0188 146.631C45.0188 138.418 44.9612 130.234 45.0476 122.02C45.0476 118.911 46.4286 116.359 49.5359 114.951Z" fill="#FB3834"/>
<path d="M52.7019 176.774C53.0198 176.774 65.1036 176.945 72.821 176.936C74.7744 176.934 79.0627 181.143 79.0317 183.096L78.8316 195.702H60L59.086 195.17C59.086 196.734 57.9222 196.201 57.224 196.135C54.5972 195.636 51.9372 195.669 49.2771 195.802C42.4608 196.102 35.6445 196.301 28.8614 195.702C25.8689 195.436 23.8074 193.607 22.1116 191.378C20.6486 189.415 20.4158 187.186 20.4158 184.725C20.4158 168.457 20.7816 152.157 20.1498 135.89C20.0501 133.229 19.4183 132.563 16.7583 132.497C14.3643 132.463 12.0035 132.53 9.60948 132.463C8.87797 132.43 7.98021 132.63 7.64771 131.632C8.34596 131.199 9.14397 131.233 9.90873 131.233L9.91314 131.233C16.329 131.266 22.7448 131.299 29.1607 131.299C32.9845 131.299 37.4733 134.027 37.3403 139.582C37.1075 147.533 37.2738 155.517 37.2738 163.501C37.2738 165.364 37.2738 167.26 37.5398 169.123C38.0718 172.715 40.4658 175.477 43.9571 176.375C46.8166 177.107 49.7759 176.741 52.7019 176.774Z" fill="#0136BE"/>
<path d="M78.9363 206.181C79.0028 208.111 78.5373 209.874 77.4401 211.437C76.0436 214.032 73.7825 215.363 70.923 215.695C69.5597 215.862 68.1632 215.995 66.8 215.995C63.5747 216.028 60.3826 215.895 57.1574 215.928C41.4964 216.094 25.8355 215.862 10.1746 215.828C9.40985 215.828 8.61184 215.862 7.91358 215.462C7.04907 215.529 6.31757 215.229 5.58606 214.83C2.06152 212.834 0.0997511 209.707 0.0665007 205.749C-0.0332504 184.292 0 162.802 0.0332504 141.312C0.0332504 136.389 2.82628 132.996 7.58108 131.598C11.0724 131.598 14.5637 131.598 18.0549 131.598C20.9145 131.598 20.9145 131.632 20.9145 134.459C20.9145 151.625 20.9477 168.79 20.8812 185.955C20.848 190.446 24.7383 194.205 28.6951 194.738C34.9129 195.569 41.1639 195.004 47.415 195.004C50.8398 195.004 54.2646 194.505 57.6561 195.303C58.1549 195.436 58.6536 195.403 59.1191 195.137L59.2189 195.103C59.7509 194.837 60.4159 194.771 60.8149 195.07C61.7127 195.769 62.6769 195.602 63.6744 195.602C65.7692 195.636 67.864 195.569 69.992 195.602C72.918 195.669 75.8441 195.436 78.7701 195.736L78.8698 195.769C79.1358 199.262 78.8366 202.721 78.9363 206.181Z" fill="#0047FF"/>
<path d="M134.43 176.774C134.112 176.774 122.028 176.945 114.311 176.936C112.358 176.934 108.069 181.143 108.1 183.096L108.3 195.702H127.132L128.046 195.17C128.046 196.734 129.21 196.201 129.908 196.135C132.535 195.636 135.195 195.669 137.855 195.802C144.671 196.102 151.488 196.301 158.271 195.702C161.263 195.436 163.325 193.607 165.02 191.378C166.483 189.415 166.716 187.186 166.716 184.725C166.716 168.457 166.35 152.157 166.982 135.89C167.082 133.229 167.714 132.563 170.374 132.497C172.768 132.463 175.129 132.53 177.523 132.463C178.254 132.43 179.152 132.63 179.484 131.632C178.786 131.199 177.988 131.233 177.223 131.233L177.219 131.233C170.803 131.266 164.387 131.299 157.971 131.299C154.148 131.299 149.659 134.027 149.792 139.582C150.025 147.533 149.858 155.517 149.858 163.501C149.858 165.364 149.858 167.26 149.592 169.123C149.06 172.715 146.666 175.477 143.175 176.375C140.315 177.107 137.356 176.741 134.43 176.774Z" fill="#FFC000"/>
<path d="M108.196 206.181C108.129 208.111 108.595 209.874 109.692 211.437C111.089 214.032 113.35 215.363 116.209 215.695C117.572 215.862 118.969 215.995 120.332 215.995C123.557 216.028 126.749 215.895 129.975 215.928C145.636 216.094 161.297 215.862 176.957 215.828C177.722 215.828 178.52 215.862 179.218 215.462C180.083 215.529 180.815 215.229 181.546 214.83C185.071 212.834 187.032 209.707 187.066 205.749C187.165 184.292 187.132 162.802 187.099 141.312C187.099 136.389 184.306 132.996 179.551 131.598C176.06 131.598 172.568 131.598 169.077 131.598C166.218 131.598 166.218 131.632 166.218 134.459C166.218 151.625 166.184 168.79 166.251 185.955C166.284 190.446 162.394 194.205 158.437 194.738C152.219 195.569 145.968 195.004 139.717 195.004C136.292 195.004 132.868 194.505 129.476 195.303C128.977 195.436 128.478 195.403 128.013 195.137L127.913 195.103C127.381 194.837 126.716 194.771 126.317 195.07C125.419 195.769 124.455 195.602 123.458 195.602C121.363 195.636 119.268 195.569 117.14 195.602C114.214 195.669 111.288 195.436 108.362 195.736L108.262 195.769C107.996 199.262 108.295 202.721 108.196 206.181Z" fill="#FED701"/>
</g>
<path d="M288.28 113.2C263.92 113.2 250.24 103.6 250.24 84.88V84.16H268.24V86.32C268.24 93.76 271.96 96.76 288.28 96.76C302.68 96.76 306.04 94.6 306.04 89.2C306.04 84.28 303.28 82.48 295 81.04L272.44 77.8C258.04 75.52 249.52 68.32 249.52 55.24C249.52 43.12 259.36 30.4 286.36 30.4C311.08 30.4 322.6 41.8 322.6 58.72V59.44H304.48V57.76C304.48 50.08 300.52 46.84 284.56 46.84C271.6 46.84 267.64 49.36 267.64 54.52C267.64 59.2 270.28 60.88 277 62.08L299.56 65.68C317.56 68.56 324.04 77.32 324.04 88.36C324.04 101.44 313.84 113.2 288.28 113.2ZM367.73 113.2C341.45 113.2 329.57 102.52 329.57 84.76V82.84H348.65V84.76C348.65 92.92 350.93 95.92 366.89 95.92C382.01 95.92 386.69 93.52 386.69 86.56C386.69 80.56 382.85 78.04 375.29 78.04H352.13V63.28H373.61C380.57 63.28 383.69 60.76 383.69 55.72C383.69 50.08 380.33 47.68 366.65 47.68C352.25 47.68 348.65 50.68 348.65 58.84V59.44H329.57V58.84C329.57 41.92 342.05 30.4 368.21 30.4C389.69 30.4 401.57 37.72 401.57 51.88C401.57 61.12 396.05 67.36 385.61 68.68V70C397.37 71.68 405.05 77.68 405.05 89.44C405.05 105.04 391.13 113.2 367.73 113.2ZM485.234 84.64L507.554 112H484.514L464.954 88.36H464.234H452.834V112H431.834V63.04C431.834 42.04 443.474 26.56 467.474 26.56C490.754 26.56 502.994 42.16 502.994 57.4C502.994 70.6 496.514 79.84 485.234 84.64ZM452.834 62.2V71.56H466.994C477.074 71.56 482.834 66.28 482.834 58.36C482.834 51.4 477.434 44.2 467.594 44.2C455.594 44.2 452.834 54.04 452.834 62.2ZM548.193 97.36C553.953 97.36 558.393 95.68 562.953 90.64L575.193 101.32C568.353 109.6 558.393 113.44 547.593 113.44C526.953 113.44 510.993 99.16 510.993 78.88C510.993 58.48 526.953 44.2 547.593 44.2C558.273 44.2 568.233 47.92 575.193 56.32L562.953 66.88C558.513 62.08 553.833 60.28 547.833 60.28C540.033 60.28 533.553 64.12 530.913 71.44L557.073 71.2V84.64L530.433 84.4C532.473 92.92 539.433 97.36 548.193 97.36ZM660.894 44.2C679.974 44.2 693.414 58.48 693.414 79.84V112H673.494V76.6C673.494 67.48 668.214 61.12 660.894 61.12C653.454 61.12 648.174 67.48 648.174 76.6V112H628.254V76.6C628.254 67.48 623.094 61.12 615.534 61.12C608.214 61.12 602.934 67.48 602.934 76.6V112H583.014V79.84C583.014 58.48 596.454 44.2 615.534 44.2C625.134 44.2 632.934 47.8 638.214 53.92C643.614 47.8 651.294 44.2 660.894 44.2ZM740.727 113.44C719.247 113.44 703.767 98.8 703.767 78.76C703.767 58.72 719.367 44.2 740.847 44.2C762.327 44.2 777.927 58.72 777.927 78.64C777.927 98.68 762.327 113.44 740.727 113.44ZM740.847 96.4C750.807 96.4 757.887 89.32 757.887 78.76C757.887 68.08 750.807 61.12 740.727 61.12C730.887 61.12 723.687 68.08 723.687 78.52C723.687 89.32 730.887 96.4 740.847 96.4ZM828.46 93.52L835.18 107.2C830.14 111.16 823.54 113.44 815.02 113.44C801.1 113.44 791.26 105.76 791.26 86.2V61.96H780.7V45.64H832.18V61.96H811.06V86.44C811.06 94.84 814.78 96.52 818.38 96.52C822.82 96.52 826.06 94.96 828.46 93.52ZM855.022 40.36C849.022 40.36 844.462 35.8 844.462 30.04C844.462 24.16 849.022 19.6 855.022 19.6C861.142 19.6 865.582 24.16 865.582 30.04C865.582 35.8 861.142 40.36 855.022 40.36ZM864.982 112H845.182V45.64H864.982V112ZM913.11 113.44C892.11 113.44 876.15 99.16 876.15 78.88C876.15 58.48 892.11 44.2 913.11 44.2C923.43 44.2 933.39 47.92 940.35 56.32L927.27 67.72C923.31 62.8 918.63 61.12 913.23 61.12C903.75 61.12 896.19 67.36 896.19 78.76C896.19 90.16 903.87 96.52 913.59 96.52C918.75 96.52 923.19 94.96 927.27 89.92L940.35 101.32C933.51 109.6 923.55 113.44 913.11 113.44ZM982.37 44.2C1003.97 44.2 1019.45 58.84 1019.45 80.08V112H1001.33L1000.97 104.8C995.81 110.32 988.37 113.44 979.73 113.44C960.29 113.44 945.29 99.64 945.29 79.36C945.29 58.84 960.77 44.2 982.37 44.2ZM982.37 96.52C992.33 96.52 999.41 89.56 999.41 79C999.41 68.32 992.33 61.24 982.25 61.24C972.29 61.24 965.21 68.32 965.21 78.88C965.21 89.56 972.41 96.52 982.37 96.52Z" fill="#141414"/>
<path d="M632.26 176H667.6V182.84H653.8V218H646V182.84H632.26V176ZM682.859 211.94C685.799 211.94 688.259 211.22 690.599 208.58L695.819 213.02C692.519 216.8 687.779 218.66 682.739 218.66C672.719 218.66 664.919 211.64 664.919 201.62C664.919 191.54 672.719 184.46 682.739 184.46C687.719 184.46 692.459 186.32 695.819 190.16L690.599 194.6C688.259 192.02 685.739 191.18 682.619 191.18C678.059 191.18 674.219 193.58 672.899 197.96H688.199V204.08H672.659C673.679 209.18 677.759 211.94 682.859 211.94ZM716.724 218.66C706.704 218.66 698.904 211.64 698.904 201.62C698.904 191.54 706.704 184.46 716.724 184.46C721.704 184.46 726.444 186.32 729.804 190.16L724.524 194.6C722.244 192.08 719.724 191.24 716.664 191.24C710.964 191.24 706.464 194.9 706.464 201.56C706.464 208.28 711.024 211.94 716.844 211.94C719.784 211.94 722.244 211.22 724.524 208.52L729.804 213.02C726.504 216.8 721.764 218.66 716.724 218.66ZM753.828 184.46C761.748 184.46 767.088 189.68 767.088 198.32V218H759.648V199.34C759.648 194.12 757.128 191.36 751.968 191.36C746.448 191.36 742.428 195.68 742.428 201.8V218H734.988V173.72H742.428V189.14C744.948 186.38 748.728 184.46 753.828 184.46ZM782.498 200.6V218H775.058V201.68C775.058 191.54 781.658 184.46 791.078 184.46C800.558 184.46 807.158 191.54 807.158 201.68V218H799.718V200.6C799.718 195.08 796.178 191.24 791.078 191.24C786.038 191.24 782.498 195.08 782.498 200.6ZM831.157 218.66C820.777 218.66 813.337 211.46 813.337 201.56C813.337 191.66 820.837 184.46 831.157 184.46C841.597 184.46 849.097 191.66 849.097 201.5C849.097 211.4 841.597 218.66 831.157 218.66ZM831.217 211.94C837.217 211.94 841.537 207.8 841.537 201.56C841.537 195.26 837.217 191.24 831.157 191.24C825.217 191.24 820.837 195.26 820.837 201.5C820.837 207.8 825.217 211.94 831.217 211.94ZM863.073 218H855.633V173.72H863.073V218ZM887.466 218.66C877.086 218.66 869.646 211.46 869.646 201.56C869.646 191.66 877.146 184.46 887.466 184.46C897.906 184.46 905.406 191.66 905.406 201.5C905.406 211.4 897.906 218.66 887.466 218.66ZM887.526 211.94C893.526 211.94 897.846 207.8 897.846 201.56C897.846 195.26 893.526 191.24 887.466 191.24C881.526 191.24 877.146 195.26 877.146 201.5C877.146 207.8 881.526 211.94 887.526 211.94ZM932.905 210.8V202.16H939.925V228.26H932.905V217.76C931.045 218.36 928.945 218.66 926.665 218.66C916.285 218.66 908.845 211.52 908.845 201.56C908.845 191.66 916.345 184.46 926.665 184.46C931.645 184.46 936.325 186.26 939.745 190.16L934.585 194.66C932.905 192.32 930.025 191.06 926.785 191.06C920.845 191.06 916.345 195.02 916.345 201.56C916.345 208.1 920.845 212 926.785 212C929.065 212 931.105 211.64 932.905 210.8ZM951.991 181.94C949.651 181.94 947.731 180.08 947.731 177.8C947.731 175.46 949.651 173.6 951.991 173.6C954.331 173.6 956.131 175.46 956.131 177.8C956.131 180.08 954.331 181.94 951.991 181.94ZM955.651 218H948.211V185.18H955.651V218ZM980.164 211.94C983.104 211.94 985.564 211.22 987.904 208.58L993.124 213.02C989.824 216.8 985.084 218.66 980.044 218.66C970.024 218.66 962.224 211.64 962.224 201.62C962.224 191.54 970.024 184.46 980.044 184.46C985.024 184.46 989.764 186.32 993.124 190.16L987.904 194.6C985.564 192.02 983.044 191.18 979.924 191.18C975.364 191.18 971.524 193.58 970.204 197.96H985.504V204.08H969.964C970.984 209.18 975.064 211.94 980.164 211.94ZM1010.13 218.6C1004.67 218.6 999.33 216.74 995.73 214.64L998.79 208.52C1002.87 210.86 1006.71 211.82 1010.43 211.82C1014.51 211.82 1017.03 211.04 1017.03 208.58C1017.03 206.36 1015.23 205.52 1009.35 204.5C999.75 202.88 996.81 199.88 996.81 194.54C996.81 188.12 1001.43 184.52 1009.41 184.52C1013.79 184.52 1020.09 185.9 1023.33 187.94L1020.33 194.18C1017.21 192.38 1013.01 191.3 1008.93 191.3C1005.93 191.3 1004.37 192.14 1004.37 193.94C1004.37 195.74 1005.87 196.52 1011.45 197.66C1021.65 199.82 1024.47 203.06 1024.47 208.28C1024.47 214.88 1018.77 218.6 1010.13 218.6Z" fill="#141414"/>
<defs>
<clipPath id="clip0_57_107">
<rect width="187" height="198" fill="white" transform="translate(0 18)"/>
</clipPath>
</defs>
</svg>
